<svg width="965" height="361" viewBox="0 0 965 361" fill="none" xmlns="http://www.w3.org/2000/svg">
<path d="M200.389 133.513H0.784393V173.155H200.389V133.513Z" fill="#4CAF50" stroke="#4CAF50" stroke-width="0.755906" stroke-miterlimit="22.9256"/>
<path d="M180.365 190.15H0.374695V229.792H180.365V190.15Z" fill="#4CAF50" stroke="#4CAF50" stroke-width="0.755906" stroke-miterlimit="22.9256"/>
<path d="M161.976 246.006H1.59924V285.648H161.976V246.006Z" fill="#4CAF50" stroke="#4CAF50" stroke-width="0.755906" stroke-miterlimit="22.9256"/>
<path d="M329.668 126.62V160.415H231.981V126.62H329.668ZM254.158 87.7564H299.147V238.987C299.147 243.141 299.781 246.379 301.048 248.703C302.316 250.956 304.076 252.54 306.329 253.455C308.652 254.37 311.327 254.828 314.355 254.828C316.467 254.828 318.579 254.652 320.691 254.3C322.804 253.878 324.423 253.561 325.549 253.35L332.625 286.827C330.372 287.531 327.204 288.341 323.12 289.256C319.037 290.242 314.073 290.84 308.23 291.052C297.387 291.474 287.883 290.031 279.716 286.722C271.619 283.413 265.318 278.273 260.812 271.303C256.306 264.333 254.088 255.532 254.158 244.901V87.7564ZM430.524 292.002C414.119 292.002 399.932 288.517 387.964 281.547C376.065 274.506 366.877 264.72 360.4 252.188C353.923 239.585 350.684 224.976 350.684 208.361C350.684 191.604 353.923 176.96 360.4 164.428C366.877 151.825 376.065 142.039 387.964 135.069C399.932 128.028 414.119 124.508 430.524 124.508C446.928 124.508 461.079 128.028 472.978 135.069C484.947 142.039 494.17 151.825 500.647 164.428C507.124 176.96 510.363 191.604 510.363 208.361C510.363 224.976 507.124 239.585 500.647 252.188C494.17 264.72 484.947 274.506 472.978 281.547C461.079 288.517 446.928 292.002 430.524 292.002ZM430.735 257.151C438.198 257.151 444.429 255.039 449.427 250.815C454.426 246.52 458.193 240.677 460.727 233.284C463.332 225.892 464.635 217.478 464.635 208.044C464.635 198.61 463.332 190.196 460.727 182.804C458.193 175.411 454.426 169.567 449.427 165.273C444.429 160.978 438.198 158.831 430.735 158.831C423.201 158.831 416.865 160.978 411.725 165.273C406.656 169.567 402.819 175.411 400.214 182.804C397.68 190.196 396.412 198.61 396.412 208.044C396.412 217.478 397.68 225.892 400.214 233.284C402.819 240.677 406.656 246.52 411.725 250.815C416.865 255.039 423.201 257.151 430.735 257.151ZM584.605 72.5489V288.834H539.617V72.5489H584.605ZM620.644 288.834V126.62H665.633V288.834H620.644ZM643.244 105.71C636.556 105.71 630.818 103.492 626.03 99.0565C621.313 94.5506 618.954 89.1645 618.954 82.8985C618.954 76.7028 621.313 71.3872 626.03 66.9517C630.818 62.4458 636.556 60.1928 643.244 60.1928C649.933 60.1928 655.636 62.4458 660.353 66.9517C665.14 71.3872 667.534 76.7028 667.534 82.8985C667.534 89.1645 665.14 94.5506 660.353 99.0565C655.636 103.492 649.933 105.71 643.244 105.71ZM836.639 172.876L795.452 175.411C794.748 171.891 793.234 168.722 790.91 165.906C788.587 163.02 785.524 160.731 781.723 159.042C777.991 157.282 773.52 156.402 768.31 156.402C761.34 156.402 755.461 157.88 750.674 160.837C745.886 163.724 743.492 167.596 743.492 172.454C743.492 176.326 745.041 179.6 748.139 182.275C751.237 184.951 756.553 187.098 764.086 188.718L793.445 194.632C809.216 197.87 820.973 203.08 828.718 210.262C836.463 217.443 840.335 226.877 840.335 238.564C840.335 249.196 837.202 258.524 830.936 266.551C824.74 274.577 816.221 280.843 805.379 285.349C794.607 289.784 782.18 292.002 768.099 292.002C746.626 292.002 729.517 287.531 716.774 278.59C704.101 269.578 696.673 257.327 694.49 241.838L738.74 239.515C740.078 246.063 743.316 251.061 748.456 254.511C753.596 257.891 760.179 259.58 768.205 259.58C776.09 259.58 782.427 258.067 787.214 255.039C792.072 251.941 794.536 247.964 794.607 243.106C794.536 239.022 792.811 235.678 789.432 233.073C786.052 230.397 780.842 228.356 773.802 226.948L745.71 221.35C729.869 218.182 718.076 212.691 710.332 204.876C702.657 197.061 698.82 187.098 698.82 174.989C698.82 164.569 701.637 155.592 707.269 148.059C712.972 140.525 720.963 134.717 731.242 130.633C741.592 126.55 753.701 124.508 767.571 124.508C788.059 124.508 804.182 128.838 815.939 137.498C827.768 146.158 834.667 157.95 836.639 172.876ZM954.946 126.62V160.415H857.259V126.62H954.946ZM879.436 87.7564H924.425V238.987C924.425 243.141 925.059 246.379 926.326 248.703C927.593 250.956 929.354 252.54 931.606 253.455C933.93 254.37 936.605 254.828 939.633 254.828C941.745 254.828 943.857 254.652 945.969 254.3C948.081 253.878 949.701 253.561 950.827 253.35L957.903 286.827C955.65 287.531 952.482 288.341 948.398 289.256C944.315 290.242 939.351 290.84 933.507 291.052C922.665 291.474 913.16 290.031 904.993 286.722C896.897 283.413 890.595 278.273 886.089 271.303C881.584 264.333 879.366 255.532 879.436 244.901V87.7564Z" fill="#262626"/>
<path d="M329.668 126.62H329.812V126.476H329.668V126.62ZM329.668 160.415V160.559H329.812V160.415H329.668ZM231.981 160.415H231.837V160.559H231.981V160.415ZM231.981 126.62V126.476H231.837V126.62H231.981ZM254.158 87.7564V87.6124H254.014V87.7564H254.158ZM299.147 87.7564H299.291V87.6124H299.147V87.7564ZM301.048 248.703L300.922 248.772L300.923 248.773L301.048 248.703ZM306.329 253.455L306.275 253.589L306.276 253.589L306.329 253.455ZM320.691 254.3L320.715 254.442L320.72 254.441L320.691 254.3ZM325.549 253.35L325.69 253.32L325.661 253.182L325.523 253.208L325.549 253.35ZM332.625 286.827L332.668 286.965L332.793 286.926L332.766 286.798L332.625 286.827ZM323.12 289.256L323.089 289.116L323.087 289.116L323.12 289.256ZM308.23 291.052L308.224 290.908L308.224 290.908L308.23 291.052ZM279.716 286.722L279.661 286.855L279.661 286.855L279.716 286.722ZM260.812 271.303L260.933 271.225L260.933 271.225L260.812 271.303ZM254.158 244.901L254.302 244.902V244.901H254.158ZM329.524 126.62V160.415H329.812V126.62H329.524ZM329.668 160.271H231.981V160.559H329.668V160.271ZM232.125 160.415V126.62H231.837V160.415H232.125ZM231.981 126.764H329.668V126.476H231.981V126.764ZM254.158 87.9004H299.147V87.6124H254.158V87.9004ZM299.003 87.7564V238.987H299.291V87.7564H299.003ZM299.003 238.987C299.003 243.153 299.638 246.419 300.922 248.772L301.175 248.634C299.924 246.34 299.291 243.129 299.291 238.987H299.003ZM300.923 248.773C302.205 251.053 303.989 252.66 306.275 253.589L306.383 253.322C304.162 252.42 302.426 250.859 301.174 248.632L300.923 248.773ZM306.276 253.589C308.619 254.512 311.313 254.972 314.355 254.972V254.684C311.342 254.684 308.685 254.229 306.382 253.321L306.276 253.589ZM314.355 254.972C316.475 254.972 318.595 254.795 320.715 254.442L320.668 254.158C318.563 254.509 316.459 254.684 314.355 254.684V254.972ZM320.72 254.441C322.832 254.019 324.45 253.702 325.576 253.491L325.523 253.208C324.395 253.419 322.775 253.736 320.663 254.159L320.72 254.441ZM325.408 253.379L332.484 286.857L332.766 286.798L325.69 253.32L325.408 253.379ZM332.582 286.69C330.335 287.392 327.171 288.201 323.089 289.116L323.152 289.397C327.237 288.481 330.409 287.671 332.668 286.965L332.582 286.69ZM323.087 289.116C319.015 290.099 314.062 290.697 308.224 290.908L308.235 291.196C314.085 290.984 319.058 290.385 323.154 289.396L323.087 289.116ZM308.224 290.908C297.397 291.33 287.914 289.888 279.77 286.588L279.661 286.855C287.851 290.173 297.377 291.619 308.235 291.195L308.224 290.908ZM279.77 286.588C271.699 283.29 265.422 278.169 260.933 271.225L260.691 271.381C265.214 278.377 271.539 283.535 279.661 286.855L279.77 286.588ZM260.933 271.225C256.446 264.284 254.232 255.513 254.302 244.902L254.014 244.9C253.944 255.551 256.166 264.382 260.691 271.381L260.933 271.225ZM254.302 244.901V87.7564H254.014V244.901H254.302ZM387.964 281.547L387.89 281.671L387.891 281.671L387.964 281.547ZM360.4 252.188L360.272 252.254L360.272 252.254L360.4 252.188ZM360.4 164.428L360.528 164.494L360.528 164.494L360.4 164.428ZM387.964 135.069L388.036 135.193L388.037 135.193L387.964 135.069ZM472.978 135.069L472.905 135.193L472.905 135.193L472.978 135.069ZM500.647 164.428L500.519 164.494L500.519 164.494L500.647 164.428ZM500.647 252.188L500.775 252.254L500.775 252.254L500.647 252.188ZM472.978 281.547L473.051 281.671L473.051 281.671L472.978 281.547ZM449.427 250.815L449.52 250.925L449.521 250.924L449.427 250.815ZM460.727 233.284L460.592 233.236L460.591 233.237L460.727 233.284ZM460.727 182.804L460.591 182.85L460.592 182.851L460.727 182.804ZM411.725 165.273L411.633 165.162L411.632 165.163L411.725 165.273ZM400.214 182.804L400.078 182.756L400.078 182.757L400.214 182.804ZM400.214 233.284L400.078 233.331L400.078 233.332L400.214 233.284ZM411.725 250.815L411.632 250.925L411.634 250.926L411.725 250.815ZM430.524 291.858C414.14 291.858 399.979 288.378 388.036 281.422L387.891 281.671C399.886 288.656 414.098 292.146 430.524 292.146V291.858ZM388.037 281.423C376.162 274.396 366.993 264.63 360.528 252.122L360.272 252.254C366.761 264.81 375.968 274.616 387.89 281.671L388.037 281.423ZM360.528 252.122C354.063 239.543 350.828 224.957 350.828 208.361H350.54C350.54 224.995 353.782 239.628 360.272 252.254L360.528 252.122ZM350.828 208.361C350.828 191.623 354.063 177.002 360.528 164.494L360.272 164.362C353.782 176.918 350.54 191.585 350.54 208.361H350.828ZM360.528 164.494C366.993 151.915 376.162 142.149 388.036 135.193L387.891 134.945C375.968 141.929 366.761 151.736 360.272 164.362L360.528 164.494ZM388.037 135.193C399.98 128.168 414.14 124.652 430.524 124.652V124.364C414.098 124.364 399.885 127.889 387.891 134.945L388.037 135.193ZM430.524 124.652C446.907 124.652 461.032 128.168 472.905 135.193L473.051 134.945C461.127 127.889 446.949 124.364 430.524 124.364V124.652ZM472.905 135.193C484.85 142.149 494.054 151.915 500.519 164.494L500.775 164.362C494.286 151.736 485.044 141.929 473.05 134.944L472.905 135.193ZM500.519 164.494C506.984 177.002 510.219 191.623 510.219 208.361H510.507C510.507 191.585 507.265 176.918 500.775 164.362L500.519 164.494ZM510.219 208.361C510.219 224.957 506.984 239.543 500.519 252.122L500.775 252.254C507.265 239.628 510.507 224.995 510.507 208.361H510.219ZM500.519 252.122C494.054 264.63 484.85 274.396 472.905 281.423L473.051 281.671C485.044 274.616 494.286 264.81 500.775 252.254L500.519 252.122ZM472.905 281.423C461.033 288.378 446.907 291.858 430.524 291.858V292.146C446.949 292.146 461.126 288.656 473.051 281.671L472.905 281.423ZM430.735 257.295C438.227 257.295 444.492 255.174 449.52 250.925L449.334 250.705C444.365 254.904 438.169 257.007 430.735 257.007V257.295ZM449.521 250.924C454.543 246.61 458.322 240.743 460.864 233.331L460.591 233.237C458.063 240.61 454.31 246.431 449.334 250.706L449.521 250.924ZM460.863 233.332C463.475 225.921 464.779 217.491 464.779 208.044H464.491C464.491 217.465 463.19 225.862 460.592 233.236L460.863 233.332ZM464.779 208.044C464.779 198.596 463.475 190.166 460.863 182.756L460.592 182.851C463.19 190.226 464.491 198.623 464.491 208.044H464.779ZM460.864 182.757C458.322 175.345 454.543 169.478 449.521 165.163L449.334 165.382C454.31 169.657 458.063 175.477 460.591 182.85L460.864 182.757ZM449.521 165.163C444.493 160.843 438.227 158.687 430.735 158.687V158.975C438.168 158.975 444.364 161.113 449.334 165.382L449.521 165.163ZM430.735 158.687C423.172 158.687 416.802 160.843 411.633 165.162L411.818 165.383C416.928 161.113 423.231 158.975 430.735 158.975V158.687ZM411.632 165.163C406.54 169.477 402.69 175.343 400.078 182.756L400.35 182.851C402.948 175.479 406.772 169.658 411.818 165.382L411.632 165.163ZM400.078 182.757C397.537 190.167 396.268 198.597 396.268 208.044H396.556C396.556 198.622 397.822 190.225 400.35 182.85L400.078 182.757ZM396.268 208.044C396.268 217.491 397.537 225.92 400.078 233.331L400.35 233.237C397.822 225.863 396.556 217.465 396.556 208.044H396.268ZM400.078 233.332C402.69 240.744 406.54 246.611 411.632 250.925L411.818 250.705C406.772 246.43 402.948 240.609 400.35 233.236L400.078 233.332ZM411.634 250.926C416.803 255.175 423.173 257.295 430.735 257.295V257.007C423.23 257.007 416.927 254.904 411.817 250.704L411.634 250.926ZM584.605 72.5489H584.749V72.4049H584.605V72.5489ZM584.605 288.834V288.978H584.749V288.834H584.605ZM539.617 288.834H539.473V288.978H539.617V288.834ZM539.617 72.5489V72.4049H539.473V72.5489H539.617ZM584.461 72.5489V288.834H584.749V72.5489H584.461ZM584.605 288.69H539.617V288.978H584.605V288.69ZM539.761 288.834V72.5489H539.473V288.834H539.761ZM539.617 72.6929H584.605V72.4049H539.617V72.6929ZM620.644 288.834H620.5V288.978H620.644V288.834ZM620.644 126.62V126.476H620.5V126.62H620.644ZM665.633 126.62H665.777V126.476H665.633V126.62ZM665.633 288.834V288.978H665.777V288.834H665.633ZM626.03 99.0565L625.931 99.1606L625.932 99.1621L626.03 99.0565ZM626.03 66.9517L626.129 67.0566L626.129 67.0566L626.03 66.9517ZM660.353 66.9517L660.253 67.0558L660.255 67.0573L660.353 66.9517ZM660.353 99.0565L660.451 99.1614L660.451 99.1613L660.353 99.0565ZM620.788 288.834V126.62H620.5V288.834H620.788ZM620.644 126.764H665.633V126.476H620.644V126.764ZM665.489 126.62V288.834H665.777V126.62H665.489ZM665.633 288.69H620.644V288.978H665.633V288.69ZM643.244 105.566C636.591 105.566 630.888 103.361 626.128 98.9508L625.932 99.1621C630.747 103.623 636.52 105.854 643.244 105.854V105.566ZM626.13 98.9524C621.44 94.4723 619.098 89.1234 619.098 82.8985H618.81C618.81 89.2057 621.186 94.6288 625.931 99.1606L626.13 98.9524ZM619.098 82.8985C619.098 76.7445 621.439 71.4663 626.129 67.0566L625.931 66.8468C621.187 71.3082 618.81 76.6611 618.81 82.8985H619.098ZM626.129 67.0566C630.889 62.5762 636.592 60.3368 643.244 60.3368V60.0488C636.52 60.0488 630.746 62.3153 625.931 66.8468L626.129 67.0566ZM643.244 60.3368C649.897 60.3368 655.564 62.5762 660.253 67.0558L660.452 66.8476C655.707 62.3153 649.969 60.0488 643.244 60.0488V60.3368ZM660.255 67.0573C665.015 71.4672 667.39 76.7453 667.39 82.8985H667.678C667.678 76.6604 665.266 71.3072 660.451 66.8461L660.255 67.0573ZM667.39 82.8985C667.39 89.1227 665.014 94.4714 660.254 98.9516L660.451 99.1613C665.266 94.6297 667.678 89.2064 667.678 82.8985H667.39ZM660.254 98.9516C655.565 103.361 649.897 105.566 643.244 105.566V105.854C649.968 105.854 655.707 103.623 660.451 99.1614L660.254 98.9516ZM836.639 172.876L836.647 173.02L836.802 173.011L836.781 172.858L836.639 172.876ZM795.452 175.411L795.31 175.439L795.335 175.562L795.46 175.555L795.452 175.411ZM790.91 165.906L790.798 165.997L790.799 165.998L790.91 165.906ZM781.723 159.042L781.661 159.172L781.664 159.173L781.723 159.042ZM750.674 160.837L750.748 160.96L750.749 160.96L750.674 160.837ZM748.139 182.275L748.045 182.384L748.045 182.384L748.139 182.275ZM764.086 188.718L764.056 188.858L764.058 188.859L764.086 188.718ZM793.445 194.632L793.474 194.491L793.473 194.49L793.445 194.632ZM828.718 210.262L828.62 210.367L828.62 210.367L828.718 210.262ZM830.936 266.551L830.822 266.462L830.822 266.463L830.936 266.551ZM805.379 285.349L805.434 285.482L805.434 285.482L805.379 285.349ZM716.774 278.59L716.69 278.707L716.691 278.708L716.774 278.59ZM694.49 241.838L694.483 241.695L694.326 241.703L694.348 241.858L694.49 241.838ZM738.74 239.515L738.881 239.486L738.856 239.365L738.733 239.371L738.74 239.515ZM748.456 254.511L748.376 254.631L748.377 254.632L748.456 254.511ZM787.214 255.039L787.291 255.161L787.292 255.161L787.214 255.039ZM794.607 243.106L794.751 243.108L794.751 243.103L794.607 243.106ZM789.432 233.073L789.343 233.186L789.344 233.187L789.432 233.073ZM773.802 226.948L773.83 226.806L773.83 226.806L773.802 226.948ZM745.71 221.35L745.682 221.492L745.682 221.492L745.71 221.35ZM710.332 204.876L710.229 204.976L710.229 204.977L710.332 204.876ZM707.269 148.059L707.154 147.972L707.154 147.972L707.269 148.059ZM731.242 130.633L731.189 130.499L731.189 130.499L731.242 130.633ZM815.939 137.498L815.854 137.614L815.854 137.614L815.939 137.498ZM836.63 172.733L795.443 175.267L795.46 175.555L836.647 173.02L836.63 172.733ZM795.593 175.383C794.884 171.839 793.36 168.649 791.021 165.815L790.799 165.998C793.108 168.796 794.611 171.943 795.31 175.439L795.593 175.383ZM791.023 165.816C788.683 162.909 785.601 160.608 781.781 158.91L781.664 159.173C785.448 160.855 788.491 163.13 790.798 165.997L791.023 165.816ZM781.784 158.912C778.029 157.14 773.536 156.258 768.31 156.258V156.546C773.504 156.546 777.953 157.423 781.661 159.172L781.784 158.912ZM768.31 156.258C761.32 156.258 755.413 157.741 750.598 160.715L750.749 160.96C755.509 158.02 761.361 156.546 768.31 156.546V156.258ZM750.599 160.714C745.776 163.622 743.348 167.537 743.348 172.454H743.636C743.636 167.655 745.996 163.826 750.748 160.96L750.599 160.714ZM743.348 172.454C743.348 176.371 744.918 179.683 748.045 182.384L748.233 182.167C745.165 179.517 743.636 176.282 743.636 172.454H743.348ZM748.045 182.384C751.171 185.084 756.516 187.238 764.056 188.858L764.116 188.577C756.589 186.959 751.303 184.818 748.233 182.167L748.045 182.384ZM764.058 188.859L793.417 194.773L793.473 194.49L764.114 188.576L764.058 188.859ZM793.416 194.773C809.174 198.009 820.902 203.211 828.62 210.367L828.816 210.156C821.044 202.95 809.258 197.732 793.474 194.491L793.416 194.773ZM828.62 210.367C836.332 217.518 840.191 226.913 840.191 238.564H840.479C840.479 226.842 836.593 217.368 828.816 210.156L828.62 210.367ZM840.191 238.564C840.191 249.165 837.068 258.462 830.822 266.462L831.049 266.639C837.336 258.587 840.479 249.226 840.479 238.564H840.191ZM830.822 266.463C824.644 274.466 816.146 280.718 805.323 285.216L805.434 285.482C816.296 280.968 824.837 274.688 831.05 266.639L830.822 266.463ZM805.324 285.216C794.572 289.643 782.165 291.858 768.099 291.858V292.146C782.195 292.146 794.641 289.926 805.434 285.482L805.324 285.216ZM768.099 291.858C746.644 291.858 729.568 287.391 716.856 278.472L716.691 278.708C729.466 287.672 746.607 292.146 768.099 292.146V291.858ZM716.857 278.473C704.217 269.484 696.81 257.268 694.633 241.818L694.348 241.858C696.536 257.386 703.985 269.672 716.69 278.707L716.857 278.473ZM694.498 241.982L738.748 239.659L738.733 239.371L694.483 241.695L694.498 241.982ZM738.599 239.544C739.944 246.125 743.202 251.158 748.376 254.631L748.536 254.392C743.431 250.965 740.212 246 738.881 239.486L738.599 239.544ZM748.377 254.632C753.546 258.031 760.159 259.724 768.205 259.724V259.436C760.198 259.436 753.645 257.751 748.535 254.391L748.377 254.632ZM768.205 259.724C776.107 259.724 782.473 258.208 787.291 255.161L787.137 254.918C782.38 257.926 776.073 259.436 768.205 259.436V259.724ZM787.292 255.161C792.182 252.042 794.679 248.024 794.751 243.108L794.463 243.104C794.393 247.903 791.963 251.841 787.137 254.918L787.292 255.161ZM794.751 243.103C794.679 238.974 792.932 235.589 789.52 232.959L789.344 233.187C792.691 235.767 794.393 239.071 794.463 243.108L794.751 243.103ZM789.521 232.96C786.116 230.264 780.88 228.216 773.83 226.806L773.774 227.089C780.805 228.495 785.989 230.531 789.343 233.186L789.521 232.96ZM773.83 226.806L745.738 221.209L745.682 221.492L773.774 227.089L773.83 226.806ZM745.738 221.209C729.913 218.044 718.151 212.561 710.434 204.774L710.229 204.977C718.001 212.82 729.825 218.32 745.682 221.492L745.738 221.209ZM710.434 204.775C702.79 196.99 698.964 187.065 698.964 174.989H698.676C698.676 187.132 702.525 197.132 710.229 204.976L710.434 204.775ZM698.964 174.989C698.964 164.596 701.773 155.651 707.384 148.145L707.154 147.972C701.501 155.533 698.676 164.541 698.676 174.989H698.964ZM707.384 148.145C713.068 140.636 721.036 134.843 731.295 130.767L731.189 130.499C720.889 134.591 712.875 140.414 707.154 147.972L707.384 148.145ZM731.295 130.767C741.624 126.692 753.715 124.652 767.571 124.652V124.364C753.687 124.364 741.559 126.408 731.189 130.499L731.295 130.767ZM767.571 124.652C788.04 124.652 804.129 128.978 815.854 137.614L816.025 137.382C804.234 128.698 788.078 124.364 767.571 124.364V124.652ZM815.854 137.614C827.65 146.25 834.53 158.007 836.496 172.895L836.781 172.858C834.805 157.894 827.885 146.065 816.025 137.382L815.854 137.614ZM954.946 126.62H955.09V126.476H954.946V126.62ZM954.946 160.415V160.559H955.09V160.415H954.946ZM857.259 160.415H857.115V160.559H857.259V160.415ZM857.259 126.62V126.476H857.115V126.62H857.259ZM879.436 87.7564V87.6124H879.292V87.7564H879.436ZM924.425 87.7564H924.569V87.6124H924.425V87.7564ZM926.326 248.703L926.2 248.772L926.201 248.773L926.326 248.703ZM931.606 253.455L931.552 253.589L931.554 253.589L931.606 253.455ZM945.969 254.3L945.993 254.442L945.997 254.441L945.969 254.3ZM950.827 253.35L950.968 253.32L950.939 253.182L950.801 253.208L950.827 253.35ZM957.903 286.827L957.946 286.965L958.071 286.926L958.044 286.798L957.903 286.827ZM948.398 289.256L948.367 289.116L948.364 289.116L948.398 289.256ZM933.507 291.052L933.502 290.908L933.502 290.908L933.507 291.052ZM904.993 286.722L904.939 286.855L904.939 286.855L904.993 286.722ZM886.089 271.303L886.21 271.225L886.21 271.225L886.089 271.303ZM879.436 244.901L879.58 244.902V244.901H879.436ZM954.802 126.62V160.415H955.09V126.62H954.802ZM954.946 160.271H857.259V160.559H954.946V160.271ZM857.403 160.415V126.62H857.115V160.415H857.403ZM857.259 126.764H954.946V126.476H857.259V126.764ZM879.436 87.9004H924.425V87.6124H879.436V87.9004ZM924.281 87.7564V238.987H924.569V87.7564H924.281ZM924.281 238.987C924.281 243.153 924.916 246.419 926.2 248.772L926.453 248.634C925.202 246.34 924.569 243.129 924.569 238.987H924.281ZM926.201 248.773C927.483 251.053 929.267 252.66 931.552 253.589L931.661 253.322C929.44 252.42 927.704 250.859 926.452 248.632L926.201 248.773ZM931.554 253.589C933.897 254.512 936.591 254.972 939.633 254.972V254.684C936.62 254.684 933.963 254.229 931.659 253.321L931.554 253.589ZM939.633 254.972C941.753 254.972 943.873 254.795 945.993 254.442L945.945 254.158C943.841 254.509 941.737 254.684 939.633 254.684V254.972ZM945.997 254.441C948.109 254.019 949.728 253.702 950.854 253.491L950.801 253.208C949.673 253.419 948.053 253.736 945.941 254.159L945.997 254.441ZM950.686 253.379L957.762 286.857L958.044 286.798L950.968 253.32L950.686 253.379ZM957.86 286.69C955.613 287.392 952.449 288.201 948.367 289.116L948.43 289.397C952.515 288.481 955.687 287.671 957.946 286.965L957.86 286.69ZM948.364 289.116C944.293 290.099 939.34 290.697 933.502 290.908L933.513 291.196C939.362 290.984 944.336 290.385 948.432 289.396L948.364 289.116ZM933.502 290.908C922.675 291.33 913.192 289.888 905.047 286.588L904.939 286.855C913.129 290.173 922.655 291.619 933.513 291.195L933.502 290.908ZM905.048 286.588C896.977 283.29 890.699 278.169 886.21 271.225L885.969 271.381C890.491 278.377 896.817 283.535 904.939 286.855L905.048 286.588ZM886.21 271.225C881.723 264.284 879.51 255.513 879.58 244.902L879.292 244.9C879.222 255.551 881.444 264.382 885.969 271.381L886.21 271.225ZM879.58 244.901V87.7564H879.292V244.901H879.58Z" fill="#262626"/>
</svg>
