<svg width="958" height="205" viewBox="0 0 958 205" fill="none" xmlns="http://www.w3.org/2000/svg">
<path fill-rule="evenodd" clip-rule="evenodd" d="M493.872 86.8233C516.39 81.7788 529.059 96.8836 531.106 117.88C533.25 139.88 527.041 161.359 507.898 165.097C460.82 174.289 456.431 95.2104 493.872 86.8233ZM425.56 133.87C431.492 178.278 458.924 204.05 508.535 200.806C552.419 197.935 579.021 164.662 575.493 117.854C572.049 72.1474 541.72 48.9899 492.421 51.0051C446.457 52.8839 420.231 93.9772 425.56 133.87Z" fill="#262626"/>
<path fill-rule="evenodd" clip-rule="evenodd" d="M722.66 151.999C722.822 168.762 731.405 183.271 742.288 190.813C767.438 208.243 859.338 211.841 860.229 156.571C861.18 97.5371 780.613 117.279 769.607 99.3025C758.932 81.8691 790.142 75.5728 804.997 82.6707C816.174 88.0116 812.007 92.1498 816.483 100.278L855.89 100.018C857.596 83.9823 846.579 68.0428 836.74 61.5968C808.378 43.0155 716.783 41.2781 725.722 104.568C732.785 154.582 816.797 131.046 816.36 159.203C816.111 175.16 785.462 174.721 774.763 168.952C766.335 164.408 768.164 158.631 764.465 151.34L722.66 151.999Z" fill="#262626"/>
<path fill-rule="evenodd" clip-rule="evenodd" d="M324.012 54.5552C322.224 84.3817 321.802 86.5833 330.982 86.5996C335.65 86.6082 340.073 86.4344 344.801 86.5863C345.423 106.893 342.22 161.844 347.701 176.189C351.768 186.833 360.349 193.582 372.747 196.398C380.737 198.213 402.258 199.966 411.09 198.118C411.496 198.033 411.877 197.918 412.227 197.826C412.56 197.738 413.013 197.522 413.273 197.441L415.181 196.482C417.417 191.492 416.824 172.218 415.646 165.442C389.384 162.951 388.588 168.067 388.629 139.204C388.654 121.935 388.306 104.385 388.697 86.6612L416.034 86.2314L415.42 53.5385L388.934 53.4969L388.826 12.1088C383.137 10.5313 351.675 10.7395 344.973 11.7596L344.428 53.7634L324.012 54.5552Z" fill="#262626"/>
<path fill-rule="evenodd" clip-rule="evenodd" d="M864.689 85.9332L885.285 86.3048C888.907 110.798 881.246 155.653 888.64 176.196C897.172 199.897 927.321 200.474 957.31 198.191L956.998 165.344C929.687 163.855 929.55 167.77 929.584 139.204C929.604 121.903 929.151 104.073 929.693 86.5807L957.321 86.307L957.189 54.0114L929.662 53.6273L929.328 11.3458L885.838 11.5087L885.427 53.7487L864.39 54.1516L864.689 85.9332Z" fill="#262626"/>
<path fill-rule="evenodd" clip-rule="evenodd" d="M595.175 197.848L637.838 197.51L637.72 0L594.544 0.139831L595.175 197.848Z" fill="#262626"/>
<path fill-rule="evenodd" clip-rule="evenodd" d="M662.758 54.6652C662.381 61.9147 661.685 194.31 663.15 196.766C664.849 199.616 699.945 198.531 706.154 198.183C708.634 187.875 707.935 70.2611 706.606 54.268C699.798 53.3148 668.385 52.978 662.758 54.6652Z" fill="#262626"/>
<path fill-rule="evenodd" clip-rule="evenodd" d="M664.287 38.1872L705.793 37.6747L705.941 0.995911L663.889 1.121L664.287 38.1872Z" fill="#272727"/>
<path d="M253.037 9.65442H45.5811C21.2946 9.65442 1.60663 12.9409 1.60663 16.995V53.0925C1.60663 57.1466 21.2946 60.4331 45.5811 60.4331H253.037C277.323 60.4331 297.011 57.1466 297.011 53.0925V16.995C297.011 12.9409 277.323 9.65442 253.037 9.65442Z" fill="#4CAF50" stroke="#4CAF50" stroke-width="0.755906" stroke-miterlimit="22.9256"/>
<path d="M227.723 82.2021H40.6537C18.7536 82.2021 1 85.4886 1 89.5427V125.64C1 129.694 18.7536 132.981 40.6537 132.981H227.723C249.623 132.981 267.377 129.694 267.377 125.64V89.5427C267.377 85.4886 249.623 82.2021 227.723 82.2021Z" fill="#4CAF50" stroke="#4CAF50" stroke-width="0.755906" stroke-miterlimit="22.9256"/>
<path d="M204.829 153.75H38.1448C18.6312 153.75 2.81229 157.037 2.81229 161.091V197.188C2.81229 201.242 18.6312 204.529 38.1448 204.529H204.829C224.343 204.529 240.162 201.242 240.162 197.188V161.091C240.162 157.037 224.343 153.75 204.829 153.75Z" fill="#4CAF50" stroke="#4CAF50" stroke-width="0.755906" stroke-miterlimit="22.9256"/>
</svg>
