<?xml version="1.0" encoding="UTF-8"?>
<!DOCTYPE svg PUBLIC "-//W3C//DTD SVG 1.1//EN" "http://www.w3.org/Graphics/SVG/1.1/DTD/svg11.dtd">
<!-- Creator: CorelDRAW 2021 (64 Bit) -->
<svg xmlns="http://www.w3.org/2000/svg" xml:space="preserve" width="297mm" height="210mm" version="1.1" style="shape-rendering:geometricPrecision; text-rendering:geometricPrecision; image-rendering:optimizeQuality; fill-rule:evenodd; clip-rule:evenodd"
viewBox="0 0 29700 21000"
 xmlns:xlink="http://www.w3.org/1999/xlink"
 xmlns:xodm="http://www.corel.com/coreldraw/odm/2003">
 <defs>
  <style type="text/css">
   <![CDATA[
    .str0 {stroke:#4CAF50;stroke-width:20;stroke-miterlimit:22.9256}
    .fil0 {fill:#262626}
    .fil1 {fill:#272727}
    .fil2 {fill:#4CAF50}
   ]]>
  </style>
 </defs>
 <g id="Camada_x0020_1">
  <metadata id="CorelCorpID_0Corel-Layer"/>
  <path class="fil0" d="M15238.71 10098.59c595.8,-133.47 930.98,266.18 985.14,821.72 56.74,582.06 -107.55,1150.37 -614.04,1249.26 -1245.6,243.21 -1361.72,-1849.07 -371.1,-2070.98zm-1807.42 1244.79c156.96,1174.95 882.76,1856.84 2195.38,1770.99 1161.09,-75.94 1864.94,-956.31 1771.61,-2194.75 -91.13,-1209.33 -893.58,-1822.04 -2197.96,-1768.72 -1216.12,49.71 -1910.04,1136.97 -1769.03,2192.48z"/>
  <path class="fil0" d="M21292.07 11823.02c4.27,443.52 231.37,827.42 519.32,1026.97 665.43,461.15 3096.93,556.35 3120.51,-906 25.18,-1561.93 -2106.5,-1039.59 -2397.71,-1515.22 -282.42,-461.26 543.34,-627.85 936.37,-440.05 295.73,141.31 185.48,250.8 303.91,465.86l1042.64 -6.89c45.12,-424.27 -246.37,-846 -506.69,-1016.55 -750.41,-491.63 -3173.86,-537.6 -2937.35,1136.94 186.89,1323.28 2409.71,700.57 2398.13,1445.56 -6.57,422.18 -817.5,410.58 -1100.57,257.94 -223.01,-120.24 -174.61,-273.07 -272.49,-465.98l-1106.07 17.42z"/>
  <path class="fil0" d="M10744.5 9244.83c-47.3,789.16 -58.48,847.41 184.41,847.84 123.51,0.23 240.55,-4.37 365.64,-0.35 16.45,537.28 -68.29,1991.2 76.73,2370.74 107.6,281.63 334.64,460.19 662.67,534.69 211.41,48.02 780.8,94.4 1014.49,45.51 10.74,-2.24 20.82,-5.28 30.08,-7.73 8.8,-2.32 20.8,-8.04 27.67,-10.19l50.48 -25.36c59.16,-132.03 43.48,-642 12.31,-821.27 -694.85,-65.9 -715.91,69.45 -714.82,-694.21 0.65,-456.91 -8.55,-921.25 1.81,-1390.2l723.27 -11.37 -16.24 -865 -700.78 -1.1 -2.84 -1095.06c-150.52,-41.74 -982.97,-36.23 -1160.29,-9.24l-14.42 1111.35 -540.17 20.95z"/>
  <path class="fil0" d="M25049.92 10075.04l544.92 9.83c95.84,648.05 -106.85,1834.84 88.78,2378.36 225.73,627.11 1023.43,642.38 1816.88,581.97l-8.26 -869.08c-722.59,-39.4 -726.21,64.18 -725.32,-691.63 0.53,-457.76 -11.44,-929.5 2.88,-1392.32l730.99 -7.24 -3.48 -854.49 -728.31 -10.16 -8.84 -1118.7 -1150.68 4.31 -10.87 1117.6 -556.61 10.66 7.92 840.89z"/>
  <polygon class="fil0" points="17919.01,13036.13 19047.82,13027.17 19044.68,7801.39 17902.32,7805.09 "/>
  <path class="fil0" d="M19707.16 9247.74c-9.98,191.81 -28.4,3694.78 10.36,3759.76 44.96,75.41 973.54,46.69 1137.81,37.48 65.63,-272.73 47.14,-3384.6 11.97,-3807.75 -180.13,-25.22 -1011.26,-34.13 -1160.14,10.51z"/>
  <polygon class="fil1" points="19747.62,8811.76 20845.79,8798.2 20849.7,7827.74 19737.08,7831.05 "/>
  <rect class="fil2 str0" x="2214.19" y="8056.83" width="7815.91" height="1343.52" rx="1163.49" ry="194.22"/>
  <rect class="fil2 str0" x="2198.14" y="9976.32" width="7047.89" height="1343.52" rx="1049.17" ry="194.22"/>
  <rect class="fil2 str0" x="2246.09" y="11869.36" width="6279.87" height="1343.52" rx="934.84" ry="194.22"/>
 </g>
</svg>
