<?xml version="1.0" standalone="no"?>
<!DOCTYPE svg PUBLIC "-//W3C//DTD SVG 20010904//EN"
 "http://www.w3.org/TR/2001/REC-SVG-20010904/DTD/svg10.dtd">
<svg version="1.0" xmlns="http://www.w3.org/2000/svg"
 width="2991.000000pt" height="641.000000pt" viewBox="0 0 2991.000000 641.000000"
 preserveAspectRatio="xMidYMid meet">

<g transform="translate(0.000000,641.000000) scale(0.100000,-0.100000)"
fill="#000000" stroke="none">
<path d="M19016 6403 l-448 -3 6 -2873 c3 -1579 9 -2968 12 -3084 l6 -213 567
0 c311 0 610 3 664 7 l97 6 0 1186 c0 652 -3 2040 -7 3084 l-6 1897 -221 -2
c-122 -2 -423 -4 -670 -5z"/>
<path d="M21329 6373 l-595 -3 3 -528 c2 -290 6 -549 9 -577 l5 -50 642 8
c352 4 642 9 643 10 2 1 4 259 5 572 l2 570 -59 0 c-32 0 -327 -1 -655 -2z"/>
<path d="M10882 6050 c-57 -4 -106 -10 -109 -14 -3 -3 -10 -297 -15 -653 -5
-356 -11 -650 -14 -652 -3 -3 -145 -11 -315 -17 -171 -7 -312 -14 -314 -16
-10 -10 -37 -601 -32 -713 6 -148 18 -197 56 -235 41 -42 104 -50 377 -50
l244 0 -2 -1057 c-3 -1084 0 -1202 37 -1480 21 -154 48 -251 95 -345 130 -261
347 -433 655 -523 208 -60 568 -98 935 -98 277 0 361 10 443 55 37 21 43 29
54 78 20 86 35 351 28 505 -7 180 -25 388 -33 397 -4 3 -115 14 -247 22 -132
9 -258 19 -280 22 -192 25 -255 75 -292 230 -15 62 -17 185 -20 1132 l-4 1062
118 1 c65 1 258 4 428 8 l310 6 -2 60 c-2 33 -5 261 -9 508 l-6 447 -414 0
-414 0 0 649 0 649 -32 6 c-132 24 -954 35 -1226 16z"/>
<path d="M27667 5748 c-4 -166 -7 -462 -7 -658 l0 -357 -77 -7 c-42 -3 -176
-6 -298 -6 -122 0 -237 -3 -254 -6 l-31 -6 0 -253 c0 -138 3 -360 7 -492 l6
-240 315 -6 c173 -4 317 -9 319 -11 31 -30 37 -715 14 -1478 -32 -1026 34
-1383 306 -1661 189 -194 470 -308 883 -359 122 -15 674 -18 903 -4 l147 8 0
192 c0 105 -3 336 -7 513 l-6 321 -126 6 c-488 23 -549 32 -619 92 -22 18 -49
55 -60 81 -44 104 -47 167 -47 1250 0 562 3 1024 7 1028 3 3 198 9 432 12
l426 6 0 502 0 502 -427 7 c-236 5 -430 10 -433 12 -2 3 -6 300 -8 659 l-4
655 -678 0 -677 0 -6 -302z"/>
<path d="M24345 4824 c-426 -42 -763 -136 -1028 -286 -371 -211 -588 -512
-653 -906 -22 -132 -14 -437 14 -567 79 -363 272 -603 627 -780 257 -128 505
-193 1140 -301 214 -36 448 -80 520 -98 293 -74 440 -165 507 -312 34 -76 32
-200 -5 -275 -110 -225 -494 -334 -942 -268 -195 29 -344 88 -433 173 -73 69
-91 104 -151 293 -29 89 -58 166 -64 171 -8 6 -180 6 -457 1 -245 -4 -537 -8
-649 -8 l-204 -1 7 -98 c30 -427 252 -850 572 -1090 294 -220 860 -364 1494
-379 934 -23 1679 244 2007 719 153 221 217 442 216 743 -1 666 -328 1066
-1043 1276 -187 55 -416 99 -825 159 -393 58 -549 88 -680 131 -168 56 -254
122 -308 237 -44 94 -49 188 -14 266 51 112 185 200 382 253 92 25 116 27 305
27 182 1 215 -2 295 -22 178 -45 356 -156 405 -252 10 -20 31 -84 45 -141 15
-57 37 -129 51 -159 l24 -55 613 3 c336 2 614 6 617 8 10 10 3 209 -10 284
-56 330 -301 717 -569 899 -231 157 -608 278 -1053 337 -117 16 -648 28 -753
18z"/>
<path d="M15330 4810 c-243 -16 -486 -69 -693 -151 -950 -376 -1507 -1410
-1343 -2494 78 -516 256 -957 514 -1276 438 -542 1116 -801 1992 -758 222 11
366 31 556 79 531 135 945 424 1239 865 181 272 311 641 361 1020 21 157 24
567 6 720 -54 450 -174 803 -371 1096 -344 513 -917 817 -1671 888 -156 15
-448 20 -590 11z m542 -1105 c146 -30 267 -95 384 -210 205 -201 307 -469 335
-878 23 -343 -35 -682 -156 -915 -150 -290 -370 -438 -702 -471 -531 -53 -930
284 -1065 899 -20 92 -23 133 -23 335 0 183 4 248 18 320 102 502 385 833 782
915 144 30 292 32 427 5z"/>
<path d="M21070 4729 c-217 -6 -354 -19 -369 -34 -8 -9 -19 -1325 -20 -2420 0
-875 13 -1960 25 -2002 7 -26 39 -38 149 -55 87 -14 1178 -19 1191 -5 13 12
23 116 36 372 18 346 18 3308 0 3785 -7 184 -15 336 -17 338 -18 18 -648 32
-995 21z"/>
</g>
</svg>
